<svg xmlns="http://www.w3.org/2000/svg" width="638.087" height="618.246" viewBox="0 0 638.087 618.246"><g transform="translate(-0.075 -0.075)"><path d="M336.55,120.284A110.34,110.34,0,1,1,446.89,230.626,110.34,110.34,0,0,1,336.55,120.284Z" transform="translate(25.121 0.742)" fill="#eee0fa"/><path d="M169.682,459.891a110.34,110.34,0,1,1,110.34,110.342,110.341,110.341,0,0,1-110.34-110.342Z" transform="translate(-5.005 38.101)" fill="#e6f0fc"/><path d="M280.322-59.842,220.26,0H0" transform="translate(178.859 226.972)" fill="none" stroke="#232639" stroke-linecap="round" stroke-width="2" stroke-dasharray="5 8"/><path d="M63.293,258.716a45.894,45.894,0,0,0,45.895,45.894l450.556,0a48,48,0,0,1,48,48v1.473a48,48,0,0,1-48,48H455.81L369.846,522.471H295.629" transform="translate(4.724 19.311)" fill="none" stroke="#232639" stroke-linecap="round" stroke-linejoin="round" stroke-width="2" stroke-dasharray="5 8"/><rect width="167.422" height="100.929" transform="translate(1.075 170.65)" fill="#eafaeb"/><rect width="167.422" height="100.929" transform="translate(1.075 170.65)" fill="none" stroke="#232639" stroke-linecap="round" stroke-linejoin="round" stroke-width="2"/><line y1="0.002" x2="167.414" transform="translate(1.077 204.129)" fill="none" stroke="#232639" stroke-linecap="round" stroke-linejoin="round" stroke-width="2"/><line y1="0.002" x2="167.414" transform="translate(1.077 237.613)" fill="none" stroke="#232639" stroke-linecap="round" stroke-linejoin="round" stroke-width="2"/><path d="M132.139,168.537a6.278,6.278,0,1,1-6.5,6.044A6.278,6.278,0,0,1,132.139,168.537Z" transform="translate(9.377 12.58)" fill="#232639"/><path d="M132.139,199.7a6.278,6.278,0,1,1-6.5,6.044A6.278,6.278,0,0,1,132.139,199.7Z" transform="translate(9.377 14.905)" fill="#232639"/><line y2="12.556" transform="translate(26.19 181.113)" fill="none" stroke="#232639" stroke-linecap="round" stroke-linejoin="round" stroke-width="2"/><line y2="12.556" transform="translate(49.209 181.113)" fill="none" stroke="#232639" stroke-linecap="round" stroke-linejoin="round" stroke-width="2"/><line y2="12.556" transform="translate(72.229 181.113)" fill="none" stroke="#232639" stroke-linecap="round" stroke-linejoin="round" stroke-width="2"/><line y2="12.556" transform="translate(26.19 214.596)" fill="none" stroke="#232639" stroke-linecap="round" stroke-linejoin="round" stroke-width="2"/><line y2="12.556" transform="translate(49.209 214.596)" fill="none" stroke="#232639" stroke-linecap="round" stroke-linejoin="round" stroke-width="2"/><line y2="12.556" transform="translate(72.229 214.596)" fill="none" stroke="#232639" stroke-linecap="round" stroke-linejoin="round" stroke-width="2"/><path d="M132.139,230.851a6.278,6.278,0,1,1-6.5,6.044A6.278,6.278,0,0,1,132.139,230.851Z" transform="translate(9.377 17.231)" fill="#232639"/><line y2="12.556" transform="translate(26.19 248.079)" fill="none" stroke="#232639" stroke-linecap="round" stroke-linejoin="round" stroke-width="2"/><line y2="12.556" transform="translate(49.209 248.079)" fill="none" stroke="#232639" stroke-linecap="round" stroke-linejoin="round" stroke-width="2"/><line y2="12.556" transform="translate(72.229 248.079)" fill="none" stroke="#232639" stroke-linecap="round" stroke-linejoin="round" stroke-width="2"/><path d="M609.23,142.209H373.721l25.525-29.314H583.705Z" transform="translate(27.895 8.427)" fill="none" stroke="#232639" stroke-linecap="round" stroke-linejoin="round" stroke-width="2"/><path d="M604.384,144.955H378.2l-4.482-4.782H609.229Z" transform="translate(27.895 10.463)" fill="#f5f6fa"/><path d="M604.384,144.955H378.2l-4.482-4.782H609.229Z" transform="translate(27.895 10.463)" fill="none" stroke="#232639" stroke-linecap="round" stroke-linejoin="round" stroke-width="2"/><path d="M508,140.173l-2.991,1.741h-41.08l-2.991-1.741Z" transform="translate(34.405 10.463)" fill="#232639"/><path d="M508,140.173l-2.991,1.741h-41.08l-2.991-1.741Z" transform="translate(34.405 10.463)" fill="none" stroke="#232639" stroke-linecap="round" stroke-linejoin="round" stroke-width="2"/><path d="M540.452,141.163H433.566l8.973-14.258h91.033Z" transform="translate(32.362 9.472)" fill="none" stroke="#232639" stroke-linecap="round" stroke-linejoin="round" stroke-width="2"/><path d="M568.7,117.719H409.968l-7.577,9.871H576.28Z" transform="translate(30.035 8.787)" fill="#232639"/><path d="M568.7,117.719H409.968l-7.577,9.871H576.28Z" transform="translate(30.035 8.787)" fill="none" stroke="#232639" stroke-linecap="round" stroke-linejoin="round" stroke-width="2"/><path d="M404.046,1H575.559l6.573,6.573V121.646H397.473V7.572Z" transform="translate(29.668 0.075)" fill="#c6d4f4"/><path d="M404.046,1H575.559l6.573,6.573V121.646H397.473V7.572Z" transform="translate(29.668 0.075)" fill="none" stroke="#232639" stroke-linecap="round" stroke-linejoin="round" stroke-width="2"/><path d="M1.12,0H17.889a1.12,1.12,0,0,1,1.12,1.12v.307A1.119,1.119,0,0,1,17.89,2.546H1.12A1.12,1.12,0,0,1,0,1.426V1.12A1.12,1.12,0,0,1,1.12,0Z" transform="translate(509.966 4.304)" fill="none" stroke="#232639" stroke-miterlimit="10" stroke-width="2"/><path d="M483.511,3.559a1.753,1.753,0,1,1-1.753,1.753,1.753,1.753,0,0,1,1.753-1.753" transform="translate(35.96 0.266)" fill="#fff"/><path d="M483.511,3.559a1.753,1.753,0,1,1-1.753,1.753A1.753,1.753,0,0,1,483.511,3.559Z" transform="translate(35.96 0.266)" fill="none" stroke="#232639" stroke-miterlimit="10" stroke-width="2"/><path d="M3.462,0H171.621a3.462,3.462,0,0,1,3.462,3.462V103.03a3.461,3.461,0,0,1-3.461,3.461H3.462A3.462,3.462,0,0,1,0,103.029V3.462A3.462,3.462,0,0,1,3.462,0Z" transform="translate(432.307 9.905)" fill="#fff"/><path d="M573.718,10.366a2.645,2.645,0,0,1,2.646,2.646v99.05a2.645,2.645,0,0,1-2.646,2.646H406.075a2.645,2.645,0,0,1-2.645-2.646V13.012a2.645,2.645,0,0,1,2.645-2.646Zm0-2.149H406.075a4.8,4.8,0,0,0-4.794,4.8v99.05a4.8,4.8,0,0,0,4.794,4.8H573.718a4.8,4.8,0,0,0,4.8-4.8V13.012a4.8,4.8,0,0,0-4.8-4.8" transform="translate(29.953 0.613)" fill="#232639"/><path d="M411.05,15.988a2.073,2.073,0,1,1-2.073-2.073,2.073,2.073,0,0,1,2.073,2.073" transform="translate(30.372 1.039)" fill="#232639"/><path d="M416.939,15.988a2.073,2.073,0,1,1-2.073-2.073,2.073,2.073,0,0,1,2.073,2.073" transform="translate(30.812 1.039)" fill="#232639"/><path d="M422.828,15.988a2.073,2.073,0,1,1-2.073-2.073,2.074,2.074,0,0,1,2.073,2.073" transform="translate(31.251 1.039)" fill="#232639"/><line x2="172.934" transform="translate(433.382 22.922)" fill="none" stroke="#232639" stroke-linecap="round" stroke-linejoin="round" stroke-width="2"/><path d="M496.2,31.9H484.405a1.028,1.028,0,0,1-1.028-1.028v-.119a1.028,1.028,0,0,1,1.028-1.028H496.2a1.029,1.029,0,0,1,1.028,1.028v.119A1.029,1.029,0,0,1,496.2,31.9" transform="translate(36.08 2.218)" fill="#e6f0fc"/><path d="M515.26,31.9H503.469a1.029,1.029,0,0,1-1.028-1.028v-.119a1.029,1.029,0,0,1,1.028-1.028H515.26a1.029,1.029,0,0,1,1.029,1.028v.119A1.029,1.029,0,0,1,515.26,31.9" transform="translate(37.503 2.218)" fill="#e6f0fc"/><path d="M534.754,31.9H522.963a1.029,1.029,0,0,1-1.028-1.028v-.119a1.029,1.029,0,0,1,1.028-1.028h11.791a1.028,1.028,0,0,1,1.028,1.028v.119a1.028,1.028,0,0,1-1.028,1.028" transform="translate(38.958 2.218)" fill="#e6f0fc"/><path d="M553.818,31.9H542.027A1.028,1.028,0,0,1,541,30.867v-.119a1.028,1.028,0,0,1,1.028-1.028h11.791a1.029,1.029,0,0,1,1.029,1.028v.119a1.029,1.029,0,0,1-1.029,1.028" transform="translate(40.381 2.218)" fill="#e6f0fc"/><path d="M545.7,89.76H479.058a14.746,14.746,0,0,1-14.746-14.746V53.942A14.747,14.747,0,0,1,479.058,39.2H545.7a14.747,14.747,0,0,1,14.746,14.746V75.014A14.746,14.746,0,0,1,545.7,89.76" transform="translate(34.657 2.926)" fill="#f5f6fa"/><path d="M470.129,89.76H426.582a12.441,12.441,0,0,1-12.44-12.441V51.637A12.441,12.441,0,0,1,426.582,39.2h43.547A12.441,12.441,0,0,1,482.57,51.637V77.319A12.441,12.441,0,0,1,470.129,89.76" transform="translate(30.913 2.926)" fill="#98b7ff"/><path d="M414.142,107.9V100.39a6.065,6.065,0,0,1,6.064-6.064h84.009a6.065,6.065,0,0,1,6.065,6.064V107.9Z" transform="translate(30.913 7.041)" fill="#f5f6fa"/><path d="M490.963,107.9v-5.763a7.593,7.593,0,0,1,7.358-7.808h53.905a7.594,7.594,0,0,1,7.358,7.808V107.9Z" transform="translate(36.647 7.041)" fill="#d7d9de"/><path d="M414.142,31.1a5.247,5.247,0,1,1,5.247,5.247,5.247,5.247,0,0,1-5.247-5.247" transform="translate(30.913 1.929)" fill="#e6f0fc"/><path d="M509.968,75.169H495.341a4.39,4.39,0,0,1-4.378-4.377v-.509a4.39,4.39,0,0,1,4.378-4.377h14.627a4.39,4.39,0,0,1,4.377,4.377v.509a4.39,4.39,0,0,1-4.377,4.377" transform="translate(36.647 4.919)" fill="#4343f0"/><line x2="41.985" transform="translate(527.972 59.65)" fill="none" stroke="#d7d9de" stroke-miterlimit="10" stroke-width="2"/><line x2="48.843" transform="translate(527.972 54.718)" fill="none" stroke="#d7d9de" stroke-miterlimit="10" stroke-width="2"/><path d="M427.566,77.194h39.576L456.8,60.9l-5.312,7.411L439.485,54.068Z" transform="translate(31.915 4.036)" fill="#fff"/><path d="M463.591,54.382a4.526,4.526,0,1,1-4.526-4.526,4.527,4.527,0,0,1,4.526,4.526" transform="translate(33.928 3.721)" fill="#fff"/><g transform="translate(-9.309 60)"><path d="M360.444,420.24l-23.493,40.69a2.96,2.96,0,0,0,2.564,4.44H386.5a2.96,2.96,0,0,0,2.563-4.44l-23.492-40.69A2.961,2.961,0,0,0,360.444,420.24Z" transform="translate(25.121 31.257)" fill="#fffb76" stroke="#0c1938" stroke-linecap="round" stroke-linejoin="round" stroke-width="2"/><path d="M358.7,429.873l-4.97,17.266h7.137l-4.7,15.119,13.544-20.726h-7.108l3.917-11.469Z" transform="translate(26.403 32.087)" fill="#232639"/></g><g transform="translate(-148.994 -152)"><path d="M360.444,420.24l-23.493,40.69a2.96,2.96,0,0,0,2.564,4.44H386.5a2.96,2.96,0,0,0,2.563-4.44l-23.492-40.69A2.961,2.961,0,0,0,360.444,420.24Z" transform="translate(25.121 31.257)" fill="#fffb76" stroke="#0c1938" stroke-linecap="round" stroke-linejoin="round" stroke-width="2"/><path d="M358.7,429.873l-4.97,17.266h7.137l-4.7,15.119,13.544-20.726h-7.108l3.917-11.469Z" transform="translate(26.403 32.087)" fill="#232639"/></g><g transform="translate(222.539 -105.389)"><path d="M360.444,420.24l-23.493,40.69a2.96,2.96,0,0,0,2.564,4.44H386.5a2.96,2.96,0,0,0,2.563-4.44l-23.492-40.69A2.961,2.961,0,0,0,360.444,420.24Z" transform="translate(25.121 31.257)" fill="#fffb76" stroke="#0c1938" stroke-linecap="round" stroke-linejoin="round" stroke-width="2"/><path d="M358.7,429.873l-4.97,17.266h7.137l-4.7,15.119,13.544-20.726h-7.108l3.917-11.469Z" transform="translate(26.403 32.087)" fill="#232639"/></g><g transform="translate(-12.021 42)"><line x2="211.332" transform="translate(104.805 562.474)" fill="none" stroke="#232639" stroke-miterlimit="10" stroke-width="2"/><path d="M155.006,369.427H124.562l-4.527,177.965h39.5Z" transform="translate(8.96 27.575)" fill="#c6d4f4" stroke="#232639" stroke-miterlimit="10" stroke-width="2"/><path d="M154.914,376.255H124.1l-.329,12.937h31.475Z" transform="translate(9.238 28.084)" fill="none" stroke="#232639" stroke-miterlimit="10" stroke-width="2"/><path d="M139.01,372.557v-6.82a14.769,14.769,0,0,1,14.77-14.77h16.339a14.77,14.77,0,0,0,14.77-14.77v-8.7" transform="translate(10.376 24.445)" fill="none" stroke="#232639" stroke-miterlimit="10" stroke-width="2" stroke-dasharray="9 0"/><path d="M134.087,354.3v-2.842c0-8.158,7.21-14.77,16.1-14.77h8.6c8.894,0,16.1-6.613,16.1-14.77v-4.375" transform="translate(10.009 23.702)" fill="none" stroke="#232639" stroke-miterlimit="10" stroke-width="2" stroke-dasharray="9 0"/><path d="M234.148,442.061V415.375l-101.1,31.775c-.354,0-.64.6-.64,1.347v94.625a1.92,1.92,0,0,0,.32,1.16H282.484a1.912,1.912,0,0,0,.32-1.16V426.768Z" transform="translate(9.883 31.004)" fill="#fff" stroke="#232639" stroke-miterlimit="10" stroke-width="2"/><path d="M204.5,487.422H203.01a19.015,19.015,0,0,0-19.015,19.014v32.5h39.519v-32.5A19.014,19.014,0,0,0,204.5,487.422Z" transform="translate(13.734 36.382)" fill="#c6d4f4" stroke="#232639" stroke-miterlimit="10" stroke-width="2"/><path d="M168.16,478.943H142.945V467.082a12.132,12.132,0,0,1,12.132-12.133h.951a12.132,12.132,0,0,1,12.133,12.133Z" transform="translate(10.67 33.958)" fill="#c6d4f4" stroke="#232639" stroke-miterlimit="10" stroke-width="2"/><line y2="24.186" transform="translate(166.189 488.715)" fill="none" stroke="#232639" stroke-miterlimit="10" stroke-width="2"/><line x2="25.452" transform="translate(153.464 502.245)" fill="none" stroke="#232639" stroke-miterlimit="10" stroke-width="2"/><g transform="translate(51.483)"><path d="M168.16,478.943H142.945V467.082a12.132,12.132,0,0,1,12.132-12.133h.951a12.132,12.132,0,0,1,12.133,12.133Z" transform="translate(10.67 33.958)" fill="#c6d4f4" stroke="#232639" stroke-miterlimit="10" stroke-width="2"/><line y2="24.186" transform="translate(166.189 488.715)" fill="none" stroke="#232639" stroke-miterlimit="10" stroke-width="2"/><line x2="25.452" transform="translate(153.464 502.245)" fill="none" stroke="#232639" stroke-miterlimit="10" stroke-width="2"/></g><g transform="translate(102.966)"><path d="M168.16,478.943H142.945V467.082a12.132,12.132,0,0,1,12.132-12.133h.951a12.132,12.132,0,0,1,12.133,12.133Z" transform="translate(10.67 33.958)" fill="#c6d4f4" stroke="#232639" stroke-miterlimit="10" stroke-width="2"/><line y2="24.186" transform="translate(166.189 488.715)" fill="none" stroke="#232639" stroke-miterlimit="10" stroke-width="2"/><line x2="25.452" transform="translate(153.464 502.245)" fill="none" stroke="#232639" stroke-miterlimit="10" stroke-width="2"/></g><g transform="translate(0 42.134)"><path d="M168.16,478.943H142.945V467.082a12.132,12.132,0,0,1,12.132-12.133h.951a12.132,12.132,0,0,1,12.133,12.133Z" transform="translate(10.67 33.958)" fill="#c6d4f4" stroke="#232639" stroke-miterlimit="10" stroke-width="2"/><line y2="24.186" transform="translate(166.189 488.715)" fill="none" stroke="#232639" stroke-miterlimit="10" stroke-width="2"/><line x2="25.452" transform="translate(153.464 502.245)" fill="none" stroke="#232639" stroke-miterlimit="10" stroke-width="2"/></g><g transform="translate(102.966 42.134)"><path d="M168.16,478.943H142.945V467.082a12.132,12.132,0,0,1,12.132-12.133h.951a12.132,12.132,0,0,1,12.133,12.133Z" transform="translate(10.67 33.958)" fill="#c6d4f4" stroke="#232639" stroke-miterlimit="10" stroke-width="2"/><line y2="24.186" transform="translate(166.189 488.715)" fill="none" stroke="#232639" stroke-miterlimit="10" stroke-width="2"/><line x2="25.452" transform="translate(153.464 502.245)" fill="none" stroke="#232639" stroke-miterlimit="10" stroke-width="2"/></g></g></g></svg>